<svg width="13" height="13" viewBox="0 0 13 13" fill="none" xmlns="http://www.w3.org/2000/svg">
<path d="M12.7381 1.89809L12.7331 1.90371L8.49998 6.42371V9.89184C8.50023 10.0568 8.45967 10.2192 8.38192 10.3647C8.30416 10.5102 8.19164 10.6341 8.05436 10.7256L6.05436 12.0593C5.90364 12.1597 5.72849 12.2173 5.5476 12.2259C5.36672 12.2346 5.18688 12.1939 5.0273 12.1083C4.86771 12.0227 4.73437 11.8954 4.6415 11.7399C4.54863 11.5844 4.49971 11.4067 4.49998 11.2256V6.42371L0.266858 1.90371L0.261858 1.89809C0.1317 1.75485 0.0459058 1.57691 0.0148833 1.38587C-0.0161392 1.19483 0.00894321 0.998892 0.0870879 0.821826C0.165233 0.64476 0.293081 0.494175 0.455124 0.38834C0.617167 0.282505 0.80644 0.225967 0.999983 0.225586H12C12.1937 0.225605 12.3832 0.28188 12.5455 0.387574C12.7079 0.493268 12.836 0.643832 12.9144 0.82097C12.9927 0.998108 13.018 1.1942 12.987 1.38541C12.9561 1.57662 12.8702 1.75473 12.74 1.89809H12.7381Z" fill="#BEC8D0"/>
</svg>
